<svg width="1280" height="824" viewBox="0 0 1280 824" fill="none" xmlns="http://www.w3.org/2000/svg">
<g opacity="0.3" clip-path="url(#clip0_1_1560)">
<g opacity="0.06">
<path d="M16.155 104.22L2.88887 82.9926L-53.2191 62.3221C-54.7373 61.7619 -56.4043 61.7619 -57.9225 62.3221L-114.027 82.9926L-127.293 104.22C-128.403 105.997 -127.66 108.342 -125.73 109.155L-114.027 114.083V164.398C-114.027 167.248 -112.249 169.797 -109.576 170.779L-57.919 189.81C-56.4008 190.37 -54.7339 190.37 -53.2157 189.81L-1.55854 170.779C1.11475 169.793 2.89232 167.248 2.89232 164.398V114.083L14.5953 109.155C16.5216 108.342 17.2652 105.997 16.155 104.22Z" fill="#FEA919"/>
<path d="M-59 181.268V128.643M-101.015 62.2011L-119.867 69.1454M-119.867 69.1454L-59 91.5692M-119.867 69.1454L-133.679 91.2476C-134.834 93.0978 -134.06 95.5429 -132.05 96.3867L-77.9448 119.17C-76.2778 119.869 -74.3516 119.205 -73.4766 117.624L-59 91.5692M1.86664 69.1454L-56.5515 47.6242C-58.132 47.0432 -59.8681 47.0432 -61.4485 47.6242L-77.886 53.6797M1.86664 69.1454L-59 91.5692M1.86664 69.1454L15.6792 91.2476C16.8343 93.0978 16.0597 95.5429 14.0504 96.3867L-13.3016 107.903M-59 91.5692L-44.5234 117.628C-43.6485 119.205 -41.7222 119.872 -40.0553 119.17L-30.8596 115.297M1.86662 123.344V153.906C1.86662 156.873 0.0164156 159.525 -2.76754 160.549L-56.5515 180.365C-58.132 180.946 -59.8681 180.946 -61.4485 180.365L-115.233 160.549C-118.016 159.522 -119.867 156.873 -119.867 153.906V122.314" stroke="#18193F" stroke-width="6" stroke-miterlimit="10" stroke-linecap="round" stroke-linejoin="round"/>
</g>
<g opacity="0.06">
<path d="M182.155 299.22L168.889 277.993L112.781 257.322C111.263 256.762 109.596 256.762 108.078 257.322L51.973 277.993L38.7068 299.22C37.5967 300.997 38.3402 303.342 40.27 304.155L51.973 309.083V359.398C51.973 362.248 53.7506 364.797 56.4239 365.779L108.081 384.81C109.599 385.37 111.266 385.37 112.784 384.81L164.441 365.779C167.115 364.793 168.892 362.248 168.892 359.398V309.083L180.595 304.155C182.522 303.342 183.265 300.997 182.155 299.22Z" fill="#FEA919"/>
<path d="M107 376.268V323.643M64.9847 257.201L46.1333 264.145M46.1333 264.145L107 286.569M46.1333 264.145L32.3207 286.248C31.1656 288.098 31.9403 290.543 33.9496 291.387L88.0552 314.17C89.7222 314.869 91.6484 314.205 92.5234 312.624L107 286.569M167.867 264.145L109.448 242.624C107.868 242.043 106.132 242.043 104.551 242.624L88.114 248.68M167.867 264.145L107 286.569M167.867 264.145L181.679 286.248C182.834 288.098 182.06 290.543 180.05 291.387L152.698 302.903M107 286.569L121.477 312.628C122.352 314.205 124.278 314.872 125.945 314.17L135.14 310.297M167.867 318.344V348.906C167.867 351.873 166.016 354.525 163.232 355.549L109.448 375.365C107.868 375.946 106.132 375.946 104.551 375.365L50.7675 355.549C47.9835 354.522 46.1333 351.873 46.1333 348.906V317.314" stroke="#18193F" stroke-width="6" stroke-miterlimit="10" stroke-linecap="round" stroke-linejoin="round"/>
</g>
<g opacity="0.06">
<path d="M360.155 140.22L346.889 118.993L290.781 98.3221C289.263 97.7619 287.596 97.7619 286.078 98.3221L229.973 118.993L216.707 140.22C215.597 141.997 216.34 144.342 218.27 145.155L229.973 150.083V200.398C229.973 203.248 231.751 205.797 234.424 206.779L286.081 225.81C287.599 226.37 289.266 226.37 290.784 225.81L342.441 206.779C345.115 205.793 346.892 203.248 346.892 200.398V150.083L358.595 145.155C360.522 144.342 361.265 141.997 360.155 140.22Z" fill="#FEA919"/>
<path d="M285 217.268V164.643M242.985 98.2011L224.133 105.145M224.133 105.145L285 127.569M224.133 105.145L210.321 127.248C209.166 129.098 209.94 131.543 211.95 132.387L266.055 155.17C267.722 155.869 269.648 155.205 270.523 153.624L285 127.569M345.867 105.145L287.449 83.6242C285.868 83.0432 284.132 83.0432 282.551 83.6242L266.114 89.6797M345.867 105.145L285 127.569M345.867 105.145L359.679 127.248C360.834 129.098 360.06 131.543 358.05 132.387L330.698 143.903M285 127.569L299.477 153.628C300.352 155.205 302.278 155.872 303.945 155.17L313.14 151.297M345.867 159.344V189.906C345.867 192.873 344.016 195.525 341.232 196.549L287.449 216.365C285.868 216.946 284.132 216.946 282.552 216.365L228.768 196.549C225.984 195.522 224.133 192.873 224.133 189.906V158.314" stroke="#18193F" stroke-width="6" stroke-miterlimit="10" stroke-linecap="round" stroke-linejoin="round"/>
</g>
<g opacity="0.06">
<path d="M99.155 538.22L85.8889 516.993L29.7809 496.322C28.2627 495.762 26.5957 495.762 25.0775 496.322L-31.027 516.993L-44.2932 538.22C-45.4033 539.997 -44.6598 542.342 -42.73 543.155L-31.027 548.083V598.398C-31.027 601.248 -29.2494 603.797 -26.5761 604.779L25.081 623.81C26.5992 624.37 28.2661 624.37 29.7843 623.81L81.4415 604.779C84.1147 603.793 85.8923 601.248 85.8923 598.398V548.083L97.5953 543.155C99.5216 542.342 100.265 539.997 99.155 538.22Z" fill="#FEA919"/>
<path d="M24 615.268V562.643M-18.0153 496.201L-36.8667 503.145M-36.8667 503.145L24 525.569M-36.8667 503.145L-50.6793 525.248C-51.8344 527.098 -51.0597 529.543 -49.0504 530.387L5.05523 553.17C6.72215 553.869 8.64845 553.205 9.5234 551.624L24 525.569M84.8666 503.145L26.4485 481.624C24.868 481.043 23.1319 481.043 21.5515 481.624L5.11401 487.68M84.8666 503.145L24 525.569M84.8666 503.145L98.6792 525.248C99.8343 527.098 99.0597 529.543 97.0504 530.387L69.6984 541.903M24 525.569L38.4766 551.628C39.3515 553.205 41.2778 553.872 42.9447 553.17L52.1404 549.297M84.8666 557.344V587.906C84.8666 590.873 83.0164 593.525 80.2325 594.549L26.4485 614.365C24.868 614.946 23.1319 614.946 21.5515 614.365L-32.2325 594.549C-35.0165 593.522 -36.8667 590.873 -36.8667 587.906V556.314" stroke="#18193F" stroke-width="6" stroke-miterlimit="10" stroke-linecap="round" stroke-linejoin="round"/>
</g>
<g opacity="0.06">
<path d="M268.155 731.22L254.889 709.993L198.781 689.322C197.263 688.762 195.596 688.762 194.078 689.322L137.973 709.993L124.707 731.22C123.597 732.997 124.34 735.342 126.27 736.155L137.973 741.083V791.398C137.973 794.248 139.751 796.797 142.424 797.779L194.081 816.81C195.599 817.37 197.266 817.37 198.784 816.81L250.441 797.779C253.115 796.793 254.892 794.248 254.892 791.398V741.083L266.595 736.155C268.522 735.342 269.265 732.997 268.155 731.22Z" fill="#FEA919"/>
<path d="M193 808.268V755.643M150.985 689.201L132.133 696.145M132.133 696.145L193 718.569M132.133 696.145L118.321 718.248C117.166 720.098 117.94 722.543 119.95 723.387L174.055 746.17C175.722 746.869 177.648 746.205 178.523 744.624L193 718.569M253.867 696.145L195.448 674.624C193.868 674.043 192.132 674.043 190.551 674.624L174.114 680.68M253.867 696.145L193 718.569M253.867 696.145L267.679 718.248C268.834 720.098 268.06 722.543 266.05 723.387L238.698 734.903M193 718.569L207.477 744.628C208.352 746.205 210.278 746.872 211.945 746.17L221.14 742.297M253.867 750.344V780.906C253.867 783.873 252.016 786.525 249.232 787.549L195.448 807.365C193.868 807.946 192.132 807.946 190.551 807.365L136.767 787.549C133.984 786.522 132.133 783.873 132.133 780.906V749.314" stroke="#18193F" stroke-width="6" stroke-miterlimit="10" stroke-linecap="round" stroke-linejoin="round"/>
</g>
<g opacity="0.06">
<path d="M406.155 449.22L392.889 427.993L336.781 407.322C335.263 406.762 333.596 406.762 332.078 407.322L275.973 427.993L262.707 449.22C261.597 450.997 262.34 453.342 264.27 454.155L275.973 459.083V509.398C275.973 512.248 277.751 514.797 280.424 515.779L332.081 534.81C333.599 535.37 335.266 535.37 336.784 534.81L388.441 515.779C391.115 514.793 392.892 512.248 392.892 509.398V459.083L404.595 454.155C406.522 453.342 407.265 450.997 406.155 449.22Z" fill="#FEA919"/>
<path d="M331 526.268V473.643M288.985 407.201L270.133 414.145M270.133 414.145L331 436.569M270.133 414.145L256.321 436.248C255.166 438.098 255.94 440.543 257.95 441.387L312.055 464.17C313.722 464.869 315.648 464.205 316.523 462.624L331 436.569M391.867 414.145L333.449 392.624C331.868 392.043 330.132 392.043 328.551 392.624L312.114 398.68M391.867 414.145L331 436.569M391.867 414.145L405.679 436.248C406.834 438.098 406.06 440.543 404.05 441.387L376.698 452.903M331 436.569L345.477 462.628C346.352 464.205 348.278 464.872 349.945 464.17L359.14 460.297M391.867 468.344V498.906C391.867 501.873 390.016 504.525 387.232 505.549L333.449 525.365C331.868 525.946 330.132 525.946 328.552 525.365L274.768 505.549C271.984 504.522 270.133 501.873 270.133 498.906V467.314" stroke="#18193F" stroke-width="6" stroke-miterlimit="10" stroke-linecap="round" stroke-linejoin="round"/>
</g>
<g opacity="0.06">
<path d="M1102.16 410.22L1088.89 388.993L1032.78 368.322C1031.26 367.762 1029.6 367.762 1028.08 368.322L971.973 388.993L958.707 410.22C957.597 411.997 958.34 414.342 960.27 415.155L971.973 420.083V470.398C971.973 473.248 973.751 475.797 976.424 476.779L1028.08 495.81C1029.6 496.37 1031.27 496.37 1032.78 495.81L1084.44 476.779C1087.11 475.793 1088.89 473.248 1088.89 470.398V420.083L1100.6 415.155C1102.52 414.342 1103.27 411.997 1102.16 410.22Z" fill="#FEA919"/>
<path d="M1027 487.268V434.643M984.985 368.201L966.133 375.145M966.133 375.145L1027 397.569M966.133 375.145L952.321 397.248C951.166 399.098 951.94 401.543 953.95 402.387L1008.06 425.17C1009.72 425.869 1011.65 425.205 1012.52 423.624L1027 397.569M1087.87 375.145L1029.45 353.624C1027.87 353.043 1026.13 353.043 1024.55 353.624L1008.11 359.68M1087.87 375.145L1027 397.569M1087.87 375.145L1101.68 397.248C1102.83 399.098 1102.06 401.543 1100.05 402.387L1072.7 413.903M1027 397.569L1041.48 423.628C1042.35 425.205 1044.28 425.872 1045.94 425.17L1055.14 421.297M1087.87 429.344V459.906C1087.87 462.873 1086.02 465.525 1083.23 466.549L1029.45 486.365C1027.87 486.946 1026.13 486.946 1024.55 486.365L970.768 466.549C967.984 465.522 966.133 462.873 966.133 459.906V428.314" stroke="#18193F" stroke-width="6" stroke-miterlimit="10" stroke-linecap="round" stroke-linejoin="round"/>
</g>
<g opacity="0.06">
<path d="M1319.16 232.22L1305.89 210.993L1249.78 190.322C1248.26 189.762 1246.6 189.762 1245.08 190.322L1188.97 210.993L1175.71 232.22C1174.6 233.997 1175.34 236.342 1177.27 237.155L1188.97 242.083V292.398C1188.97 295.248 1190.75 297.797 1193.42 298.779L1245.08 317.81C1246.6 318.37 1248.27 318.37 1249.78 317.81L1301.44 298.779C1304.11 297.793 1305.89 295.248 1305.89 292.398V242.083L1317.6 237.155C1319.52 236.342 1320.27 233.997 1319.16 232.22Z" fill="#FEA919"/>
<path d="M1244 309.268V256.643M1201.98 190.201L1183.13 197.145M1183.13 197.145L1244 219.569M1183.13 197.145L1169.32 219.248C1168.17 221.098 1168.94 223.543 1170.95 224.387L1225.06 247.17C1226.72 247.869 1228.65 247.205 1229.52 245.624L1244 219.569M1304.87 197.145L1246.45 175.624C1244.87 175.043 1243.13 175.043 1241.55 175.624L1225.11 181.68M1304.87 197.145L1244 219.569M1304.87 197.145L1318.68 219.248C1319.83 221.098 1319.06 223.543 1317.05 224.387L1289.7 235.903M1244 219.569L1258.48 245.628C1259.35 247.205 1261.28 247.872 1262.94 247.17L1272.14 243.297M1304.87 251.344V281.906C1304.87 284.873 1303.02 287.525 1300.23 288.549L1246.45 308.365C1244.87 308.946 1243.13 308.946 1241.55 308.365L1187.77 288.549C1184.98 287.522 1183.13 284.873 1183.13 281.906V250.314" stroke="#18193F" stroke-width="6" stroke-miterlimit="10" stroke-linecap="round" stroke-linejoin="round"/>
</g>
<g opacity="0.06">
<path d="M1086.16 664.22L1072.89 642.993L1016.78 622.322C1015.26 621.762 1013.6 621.762 1012.08 622.322L955.973 642.993L942.707 664.22C941.597 665.997 942.34 668.342 944.27 669.155L955.973 674.083V724.398C955.973 727.248 957.751 729.797 960.424 730.779L1012.08 749.81C1013.6 750.37 1015.27 750.37 1016.78 749.81L1068.44 730.779C1071.11 729.793 1072.89 727.248 1072.89 724.398V674.083L1084.6 669.155C1086.52 668.342 1087.27 665.997 1086.16 664.22Z" fill="#FEA919"/>
<path d="M1011 741.268V688.643M968.985 622.201L950.133 629.145M950.133 629.145L1011 651.569M950.133 629.145L936.321 651.248C935.166 653.098 935.94 655.543 937.95 656.387L992.055 679.17C993.722 679.869 995.648 679.205 996.523 677.624L1011 651.569M1071.87 629.145L1013.45 607.624C1011.87 607.043 1010.13 607.043 1008.55 607.624L992.114 613.68M1071.87 629.145L1011 651.569M1071.87 629.145L1085.68 651.248C1086.83 653.098 1086.06 655.543 1084.05 656.387L1056.7 667.903M1011 651.569L1025.48 677.628C1026.35 679.205 1028.28 679.872 1029.94 679.17L1039.14 675.297M1071.87 683.344V713.906C1071.87 716.873 1070.02 719.525 1067.23 720.549L1013.45 740.365C1011.87 740.946 1010.13 740.946 1008.55 740.365L954.768 720.549C951.984 719.522 950.133 716.873 950.133 713.906V682.314" stroke="#18193F" stroke-width="6" stroke-miterlimit="10" stroke-linecap="round" stroke-linejoin="round"/>
</g>
<g opacity="0.06">
<path d="M1311.16 743.22L1297.89 721.993L1241.78 701.322C1240.26 700.762 1238.6 700.762 1237.08 701.322L1180.97 721.993L1167.71 743.22C1166.6 744.997 1167.34 747.342 1169.27 748.155L1180.97 753.083V803.398C1180.97 806.248 1182.75 808.797 1185.42 809.779L1237.08 828.81C1238.6 829.37 1240.27 829.37 1241.78 828.81L1293.44 809.779C1296.11 808.793 1297.89 806.248 1297.89 803.398V753.083L1309.6 748.155C1311.52 747.342 1312.27 744.997 1311.16 743.22Z" fill="#FEA919"/>
<path d="M1236 820.268V767.643M1193.98 701.201L1175.13 708.145M1175.13 708.145L1236 730.569M1175.13 708.145L1161.32 730.248C1160.17 732.098 1160.94 734.543 1162.95 735.387L1217.06 758.17C1218.72 758.869 1220.65 758.205 1221.52 756.624L1236 730.569M1296.87 708.145L1238.45 686.624C1236.87 686.043 1235.13 686.043 1233.55 686.624L1217.11 692.68M1296.87 708.145L1236 730.569M1296.87 708.145L1310.68 730.248C1311.83 732.098 1311.06 734.543 1309.05 735.387L1281.7 746.903M1236 730.569L1250.48 756.628C1251.35 758.205 1253.28 758.872 1254.94 758.17L1264.14 754.297M1296.87 762.344V792.906C1296.87 795.873 1295.02 798.525 1292.23 799.549L1238.45 819.365C1236.87 819.946 1235.13 819.946 1233.55 819.365L1179.77 799.549C1176.98 798.522 1175.13 795.873 1175.13 792.906V761.314" stroke="#18193F" stroke-width="6" stroke-miterlimit="10" stroke-linecap="round" stroke-linejoin="round"/>
</g>
<g opacity="0.06">
<path d="M1413.16 493.22L1399.89 471.993L1343.78 451.322C1342.26 450.762 1340.6 450.762 1339.08 451.322L1282.97 471.993L1269.71 493.22C1268.6 494.997 1269.34 497.342 1271.27 498.155L1282.97 503.083V553.398C1282.97 556.248 1284.75 558.797 1287.42 559.779L1339.08 578.81C1340.6 579.37 1342.27 579.37 1343.78 578.81L1395.44 559.779C1398.11 558.793 1399.89 556.248 1399.89 553.398V503.083L1411.6 498.155C1413.52 497.342 1414.27 494.997 1413.16 493.22Z" fill="#FEA919"/>
<path d="M1338 570.268V517.643M1295.98 451.201L1277.13 458.145M1277.13 458.145L1338 480.569M1277.13 458.145L1263.32 480.248C1262.17 482.098 1262.94 484.543 1264.95 485.387L1319.06 508.17C1320.72 508.869 1322.65 508.205 1323.52 506.624L1338 480.569M1398.87 458.145L1340.45 436.624C1338.87 436.043 1337.13 436.043 1335.55 436.624L1319.11 442.68M1398.87 458.145L1338 480.569M1398.87 458.145L1412.68 480.248C1413.83 482.098 1413.06 484.543 1411.05 485.387L1383.7 496.903M1338 480.569L1352.48 506.628C1353.35 508.205 1355.28 508.872 1356.94 508.17L1366.14 504.297M1398.87 512.344V542.906C1398.87 545.873 1397.02 548.525 1394.23 549.549L1340.45 569.365C1338.87 569.946 1337.13 569.946 1335.55 569.365L1281.77 549.549C1278.98 548.522 1277.13 545.873 1277.13 542.906V511.314" stroke="#18193F" stroke-width="6" stroke-miterlimit="10" stroke-linecap="round" stroke-linejoin="round"/>
</g>
<g opacity="0.06">
<path d="M672.155 73.2198L658.889 51.9926L602.781 31.3221C601.263 30.7619 599.596 30.7619 598.078 31.3221L541.973 51.9926L528.707 73.2198C527.597 74.9974 528.34 77.3422 530.27 78.1549L541.973 83.083V133.398C541.973 136.248 543.751 138.797 546.424 139.779L598.081 158.81C599.599 159.37 601.266 159.37 602.784 158.81L654.441 139.779C657.115 138.793 658.892 136.248 658.892 133.398V83.083L670.595 78.1549C672.522 77.3422 673.265 74.9974 672.155 73.2198Z" fill="#FEA919"/>
<path d="M597 150.268V97.6426M554.985 31.2011L536.133 38.1454M536.133 38.1454L597 60.5692M536.133 38.1454L522.321 60.2476C521.166 62.0978 521.94 64.5429 523.95 65.3867L578.055 88.1702C579.722 88.8688 581.648 88.2048 582.523 86.6243L597 60.5692M657.867 38.1454L599.448 16.6242C597.868 16.0432 596.132 16.0432 594.551 16.6242L578.114 22.6797M657.867 38.1454L597 60.5692M657.867 38.1454L671.679 60.2476C672.834 62.0978 672.06 64.5429 670.05 65.3867L642.698 76.9029M597 60.5692L611.477 86.6278C612.352 88.2048 614.278 88.8722 615.945 88.1702L625.14 84.2969M657.867 92.3444V122.906C657.867 125.873 656.016 128.525 653.232 129.549L599.448 149.365C597.868 149.946 596.132 149.946 594.551 149.365L540.767 129.549C537.984 128.522 536.133 125.873 536.133 122.906V91.3138" stroke="#18193F" stroke-width="6" stroke-miterlimit="10" stroke-linecap="round" stroke-linejoin="round"/>
</g>
<g opacity="0.06">
<path d="M1020.16 156.22L1006.89 134.993L950.781 114.322C949.263 113.762 947.596 113.762 946.078 114.322L889.973 134.993L876.707 156.22C875.597 157.997 876.34 160.342 878.27 161.155L889.973 166.083V216.398C889.973 219.248 891.751 221.797 894.424 222.779L946.081 241.81C947.599 242.37 949.266 242.37 950.784 241.81L1002.44 222.779C1005.11 221.793 1006.89 219.248 1006.89 216.398V166.083L1018.6 161.155C1020.52 160.342 1021.27 157.997 1020.16 156.22Z" fill="#FEA919"/>
<path d="M945 233.268V180.643M902.985 114.201L884.133 121.145M884.133 121.145L945 143.569M884.133 121.145L870.321 143.248C869.166 145.098 869.94 147.543 871.95 148.387L926.055 171.17C927.722 171.869 929.648 171.205 930.523 169.624L945 143.569M1005.87 121.145L947.449 99.6242C945.868 99.0432 944.132 99.0432 942.551 99.6242L926.114 105.68M1005.87 121.145L945 143.569M1005.87 121.145L1019.68 143.248C1020.83 145.098 1020.06 147.543 1018.05 148.387L990.698 159.903M945 143.569L959.477 169.628C960.352 171.205 962.278 171.872 963.945 171.17L973.14 167.297M1005.87 175.344V205.906C1005.87 208.873 1004.02 211.525 1001.23 212.549L947.449 232.365C945.868 232.946 944.132 232.946 942.552 232.365L888.768 212.549C885.984 211.522 884.133 208.873 884.133 205.906V174.314" stroke="#18193F" stroke-width="6" stroke-miterlimit="10" stroke-linecap="round" stroke-linejoin="round"/>
</g>
<g opacity="0.06">
<path d="M603.155 322.22L589.889 300.993L533.781 280.322C532.263 279.762 530.596 279.762 529.078 280.322L472.973 300.993L459.707 322.22C458.597 323.997 459.34 326.342 461.27 327.155L472.973 332.083V382.398C472.973 385.248 474.751 387.797 477.424 388.779L529.081 407.81C530.599 408.37 532.266 408.37 533.784 407.81L585.441 388.779C588.115 387.793 589.892 385.248 589.892 382.398V332.083L601.595 327.155C603.522 326.342 604.265 323.997 603.155 322.22Z" fill="#FEA919"/>
<path d="M528 399.268V346.643M485.985 280.201L467.133 287.145M467.133 287.145L528 309.569M467.133 287.145L453.321 309.248C452.166 311.098 452.94 313.543 454.95 314.387L509.055 337.17C510.722 337.869 512.648 337.205 513.523 335.624L528 309.569M588.867 287.145L530.449 265.624C528.868 265.043 527.132 265.043 525.551 265.624L509.114 271.68M588.867 287.145L528 309.569M588.867 287.145L602.679 309.248C603.834 311.098 603.06 313.543 601.05 314.387L573.698 325.903M528 309.569L542.477 335.628C543.352 337.205 545.278 337.872 546.945 337.17L556.14 333.297M588.867 341.344V371.906C588.867 374.873 587.016 377.525 584.232 378.549L530.449 398.365C528.868 398.946 527.132 398.946 525.552 398.365L471.768 378.549C468.984 377.522 467.133 374.873 467.133 371.906V340.314" stroke="#18193F" stroke-width="6" stroke-miterlimit="10" stroke-linecap="round" stroke-linejoin="round"/>
</g>
<g opacity="0.06">
<path d="M520.155 648.22L506.889 626.993L450.781 606.322C449.263 605.762 447.596 605.762 446.078 606.322L389.973 626.993L376.707 648.22C375.597 649.997 376.34 652.342 378.27 653.155L389.973 658.083V708.398C389.973 711.248 391.751 713.797 394.424 714.779L446.081 733.81C447.599 734.37 449.266 734.37 450.784 733.81L502.441 714.779C505.115 713.793 506.892 711.248 506.892 708.398V658.083L518.595 653.155C520.522 652.342 521.265 649.997 520.155 648.22Z" fill="#FEA919"/>
<path d="M445 725.268V672.643M402.985 606.201L384.133 613.145M384.133 613.145L445 635.569M384.133 613.145L370.321 635.248C369.166 637.098 369.94 639.543 371.95 640.387L426.055 663.17C427.722 663.869 429.648 663.205 430.523 661.624L445 635.569M505.867 613.145L447.449 591.624C445.868 591.043 444.132 591.043 442.551 591.624L426.114 597.68M505.867 613.145L445 635.569M505.867 613.145L519.679 635.248C520.834 637.098 520.06 639.543 518.05 640.387L490.698 651.903M445 635.569L459.477 661.628C460.352 663.205 462.278 663.872 463.945 663.17L473.14 659.297M505.867 667.344V697.906C505.867 700.873 504.016 703.525 501.232 704.549L447.449 724.365C445.868 724.946 444.132 724.946 442.552 724.365L388.768 704.549C385.984 703.522 384.133 700.873 384.133 697.906V666.314" stroke="#18193F" stroke-width="6" stroke-miterlimit="10" stroke-linecap="round" stroke-linejoin="round"/>
</g>
<g opacity="0.06">
<path d="M754.155 522.22L740.889 500.993L684.781 480.322C683.263 479.762 681.596 479.762 680.078 480.322L623.973 500.993L610.707 522.22C609.597 523.997 610.34 526.342 612.27 527.155L623.973 532.083V582.398C623.973 585.248 625.751 587.797 628.424 588.779L680.081 607.81C681.599 608.37 683.266 608.37 684.784 607.81L736.441 588.779C739.115 587.793 740.892 585.248 740.892 582.398V532.083L752.595 527.155C754.522 526.342 755.265 523.997 754.155 522.22Z" fill="#FEA919"/>
<path d="M679 599.268V546.643M636.985 480.201L618.133 487.145M618.133 487.145L679 509.569M618.133 487.145L604.321 509.248C603.166 511.098 603.94 513.543 605.95 514.387L660.055 537.17C661.722 537.869 663.648 537.205 664.523 535.624L679 509.569M739.867 487.145L681.448 465.624C679.868 465.043 678.132 465.043 676.551 465.624L660.114 471.68M739.867 487.145L679 509.569M739.867 487.145L753.679 509.248C754.834 511.098 754.06 513.543 752.05 514.387L724.698 525.903M679 509.569L693.477 535.628C694.352 537.205 696.278 537.872 697.945 537.17L707.14 533.297M739.867 541.344V571.906C739.867 574.873 738.016 577.525 735.232 578.549L681.448 598.365C679.868 598.946 678.132 598.946 676.551 598.365L622.767 578.549C619.984 577.522 618.133 574.873 618.133 571.906V540.314" stroke="#18193F" stroke-width="6" stroke-miterlimit="10" stroke-linecap="round" stroke-linejoin="round"/>
</g>
<g opacity="0.06">
<path d="M868.155 299.22L854.889 277.993L798.781 257.322C797.263 256.762 795.596 256.762 794.078 257.322L737.973 277.993L724.707 299.22C723.597 300.997 724.34 303.342 726.27 304.155L737.973 309.083V359.398C737.973 362.248 739.751 364.797 742.424 365.779L794.081 384.81C795.599 385.37 797.266 385.37 798.784 384.81L850.441 365.779C853.115 364.793 854.892 362.248 854.892 359.398V309.083L866.595 304.155C868.522 303.342 869.265 300.997 868.155 299.22Z" fill="#FEA919"/>
<path d="M793 376.268V323.643M750.985 257.201L732.133 264.145M732.133 264.145L793 286.569M732.133 264.145L718.321 286.248C717.166 288.098 717.94 290.543 719.95 291.387L774.055 314.17C775.722 314.869 777.648 314.205 778.523 312.624L793 286.569M853.867 264.145L795.448 242.624C793.868 242.043 792.132 242.043 790.551 242.624L774.114 248.68M853.867 264.145L793 286.569M853.867 264.145L867.679 286.248C868.834 288.098 868.06 290.543 866.05 291.387L838.698 302.903M793 286.569L807.477 312.628C808.352 314.205 810.278 314.872 811.945 314.17L821.14 310.297M853.867 318.344V348.906C853.867 351.873 852.016 354.525 849.232 355.549L795.448 375.365C793.868 375.946 792.132 375.946 790.551 375.365L736.767 355.549C733.984 354.522 732.133 351.873 732.133 348.906V317.314" stroke="#18193F" stroke-width="6" stroke-miterlimit="10" stroke-linecap="round" stroke-linejoin="round"/>
</g>
<g opacity="0.06">
<path d="M879.155 731.22L865.889 709.993L809.781 689.322C808.263 688.762 806.596 688.762 805.078 689.322L748.973 709.993L735.707 731.22C734.597 732.997 735.34 735.342 737.27 736.155L748.973 741.083V791.398C748.973 794.248 750.751 796.797 753.424 797.779L805.081 816.81C806.599 817.37 808.266 817.37 809.784 816.81L861.441 797.779C864.115 796.793 865.892 794.248 865.892 791.398V741.083L877.595 736.155C879.522 735.342 880.265 732.997 879.155 731.22Z" fill="#FEA919"/>
<path d="M804 808.268V755.643M761.985 689.201L743.133 696.145M743.133 696.145L804 718.569M743.133 696.145L729.321 718.248C728.166 720.098 728.94 722.543 730.95 723.387L785.055 746.17C786.722 746.869 788.648 746.205 789.523 744.624L804 718.569M864.867 696.145L806.448 674.624C804.868 674.043 803.132 674.043 801.551 674.624L785.114 680.68M864.867 696.145L804 718.569M864.867 696.145L878.679 718.248C879.834 720.098 879.06 722.543 877.05 723.387L849.698 734.903M804 718.569L818.477 744.628C819.352 746.205 821.278 746.872 822.945 746.17L832.14 742.297M864.867 750.344V780.906C864.867 783.873 863.016 786.525 860.232 787.549L806.448 807.365C804.868 807.946 803.132 807.946 801.551 807.365L747.767 787.549C744.984 786.522 743.133 783.873 743.133 780.906V749.314" stroke="#18193F" stroke-width="6" stroke-miterlimit="10" stroke-linecap="round" stroke-linejoin="round"/>
</g>
</g>
<defs>
<clipPath id="clip0_1_1560">
<rect width="1282" height="824" fill="white" transform="translate(-1)"/>
</clipPath>
</defs>
</svg>
